# Blender v2.80 (sub 55) OBJ File: 'BigThruster.blend'
# www.blender.org
mtllib BigThruster.mtl
o Cylinder.002_Cylinder.005
v 0.000000 -0.100054 0.100744
v 0.087246 -0.100054 0.050372
v 0.087246 -0.100054 -0.050372
v -0.000000 -0.100054 -0.100743
v -0.087246 -0.100054 -0.050372
v -0.087246 -0.100054 0.050372
v 0.000000 0.011892 0.072788
v 0.000000 -0.012318 0.100744
v 0.063036 0.011892 0.036394
v 0.087246 -0.012318 0.050372
v 0.063036 0.011892 -0.036394
v 0.087246 -0.012318 -0.050372
v -0.000000 0.011892 -0.072788
v -0.000000 -0.012318 -0.100744
v -0.063036 0.011892 -0.036394
v -0.087246 -0.012318 -0.050372
v -0.063036 0.011892 0.036394
v -0.087246 -0.012318 0.050372
v 0.000000 -0.020476 0.072788
v 0.063036 -0.020476 0.036394
v 0.063036 -0.020476 -0.036394
v -0.000000 -0.020476 -0.072788
v -0.063036 -0.020476 -0.036394
v -0.063036 -0.020476 0.036394
v -0.019929 0.032484 0.011506
v -0.019929 0.032484 -0.011506
v -0.000000 0.032484 -0.023013
v 0.019929 0.032484 -0.011506
v 0.019929 0.032484 0.011506
v 0.000000 0.032484 0.023013
v 0.000000 0.065789 0.023013
v 0.000000 0.022682 0.072788
v 0.063036 0.022682 0.036394
v 0.019929 0.065789 0.011506
v 0.063036 0.022682 -0.036394
v 0.019929 0.065789 -0.011506
v -0.000000 0.022682 -0.072788
v -0.000000 0.065789 -0.023013
v -0.063036 0.022682 -0.036394
v -0.019929 0.065789 -0.011506
v -0.063036 0.022682 0.036394
v -0.019929 0.065789 0.011506
v -0.153880 -0.764556 0.017642
v -0.165854 -0.738474 0.010729
v -0.173191 -0.710195 0.006492
v -0.173017 -0.651439 0.006593
v -0.165512 -0.623219 0.010926
v -0.153384 -0.597231 0.017928
v 0.070405 -0.096034 -0.063707
v 0.025262 -0.095856 -0.089769
v -0.155069 -1.166125 0.016955
v -0.167044 -1.140043 0.010042
v -0.174381 -1.111764 0.005806
v -0.174207 -1.053007 0.005906
v -0.166702 -1.024787 0.010239
v -0.154573 -0.998800 0.017242
v -0.370296 -0.217907 -0.254676
v -0.386038 -0.217907 -0.227410
v 0.392775 -0.218247 0.222238
v 0.408517 -0.218247 0.194972
vt 0.697702 0.933886
vt 0.697702 0.967788
vt 0.660122 0.967788
vt 0.660122 0.933886
vt 0.891060 0.642510
vt 0.923787 0.642511
vt 0.923787 0.681439
vt 0.891060 0.681439
vt 0.488838 0.895858
vt 0.521555 0.895810
vt 0.521043 0.928459
vt 0.488327 0.928508
vt 0.521554 0.963144
vt 0.488838 0.963192
vt 0.397383 0.789846
vt 0.397383 0.828682
vt 0.364869 0.848202
vt 0.332354 0.828885
vt 0.332354 0.790048
vt 0.364869 0.770529
vt 0.891120 0.599170
vt 0.923830 0.599228
vt 0.924451 0.631878
vt 0.891740 0.631820
vt 0.891740 0.564485
vt 0.924451 0.564544
vt 0.436655 0.763098
vt 0.436655 0.724249
vt 0.445381 0.730258
vt 0.445381 0.758327
vt 0.469182 0.704897
vt 0.468882 0.716276
vt 0.501710 0.724393
vt 0.492383 0.730362
vt 0.501710 0.763242
vt 0.492383 0.758431
vt 0.469182 0.782594
vt 0.468882 0.772413
vt 0.665331 0.924506
vt 0.692483 0.924506
vt 0.268426 0.986809
vt 0.268426 0.958683
vt 0.280500 0.958683
vt 0.280500 0.986809
vt 0.528908 0.742489
vt 0.529356 0.766079
vt 0.513266 0.766050
vt 0.512817 0.742460
vt 0.205476 0.926985
vt 0.205106 0.950575
vt 0.193037 0.950593
vt 0.193406 0.927003
vt 0.782416 0.922526
vt 0.781968 0.947586
vt 0.769900 0.947564
vt 0.770349 0.922504
vt 0.167282 0.989385
vt 0.167282 0.961258
vt 0.179356 0.961258
vt 0.179356 0.989385
vt 0.205476 0.975635
vt 0.193406 0.975653
vt 0.782416 0.971176
vt 0.770349 0.971154
vt 0.897526 0.905657
vt 0.924679 0.905656
vt 0.924679 0.922333
vt 0.897526 0.922334
vt 0.067698 0.950350
vt 0.068068 0.975410
vt 0.051974 0.975434
vt 0.051605 0.950374
vt 0.284927 0.924931
vt 0.284927 0.953058
vt 0.268828 0.953057
vt 0.268828 0.924931
vt 0.927476 0.780365
vt 0.927476 0.789239
vt 0.920045 0.793660
vt 0.912615 0.789206
vt 0.912615 0.780332
vt 0.920045 0.775911
vt 0.068068 0.926760
vt 0.051974 0.926784
vt 0.803451 0.685928
vt 0.794867 0.685928
vt 0.794867 0.673059
vt 0.803451 0.673058
vt 0.867826 0.944908
vt 0.875241 0.940463
vt 0.890121 0.950139
vt 0.866667 0.964196
vt 0.860411 0.940460
vt 0.843214 0.950127
vt 0.860411 0.931567
vt 0.843214 0.922001
vt 0.867826 0.927123
vt 0.866667 0.907944
vt 0.875241 0.931571
vt 0.890121 0.922013
vt 0.915403 0.939034
vt 0.906819 0.939034
vt 0.529356 0.717429
vt 0.513266 0.717400
vt 0.752829 0.908765
vt 0.752723 0.900842
vt 0.765142 0.900842
vt 0.765248 0.908765
vt 0.512575 0.779943
vt 0.512421 0.772485
vt 0.524838 0.772485
vt 0.524992 0.779943
vt 0.752702 0.916223
vt 0.765121 0.916223
vt 0.793150 0.685928
vt 0.784566 0.685928
vt 0.784566 0.673058
vt 0.793150 0.673058
vt 0.512446 0.787866
vt 0.524863 0.787866
vn -0.5000 0.0000 0.8660
vn 0.5000 -0.0000 -0.8660
vn -0.5000 -0.0000 -0.8660
vn -1.0000 0.0000 0.0000
vn 0.0000 -1.0000 0.0000
vn 1.0000 -0.0000 -0.0000
vn 0.5000 0.0000 0.8660
vn 0.3536 0.7071 0.6124
vn 0.7071 0.7071 -0.0000
vn 0.3536 0.7071 -0.6124
vn -0.3536 0.7071 -0.6124
vn -0.7071 0.7071 -0.0000
vn -0.3536 0.7071 0.6124
vn -0.0000 1.0000 -0.0000
usemtl Material.001
s off
f 18/1/1 6/2/1 1/3/1 8/4/1
f 12/5/2 3/6/2 4/7/2 14/8/2
f 14/9/3 4/10/3 5/11/3 16/12/3
f 16/12/4 5/11/4 6/13/4 18/14/4
f 2/15/5 1/16/5 6/17/5 5/18/5 4/19/5 3/20/5
f 10/21/6 2/22/6 3/23/6 12/24/6
f 8/25/7 1/26/7 2/22/7 10/21/7
f 8/27/8 10/28/8 9/29/8 7/30/8
f 10/28/9 12/31/9 11/32/9 9/29/9
f 12/31/10 14/33/10 13/34/10 11/32/10
f 14/33/11 16/35/11 15/36/11 13/34/11
f 16/35/12 18/37/12 17/38/12 15/36/12
f 18/1/13 8/4/13 7/39/13 17/40/13
f 11/41/1 13/42/1 22/43/1 21/44/1
f 20/45/6 21/46/6 35/47/6 33/48/6
f 7/49/3 9/50/3 20/51/3 19/52/3
f 13/53/7 15/54/7 23/55/7 22/56/7
f 17/57/2 7/58/2 19/59/2 24/60/2
f 9/50/4 11/61/4 21/62/4 20/51/4
f 15/54/6 17/63/6 24/64/6 23/55/6
f 24/65/1 19/66/1 32/67/1 41/68/1
f 23/69/4 24/70/4 41/71/4 39/72/4
f 21/73/2 22/74/2 37/75/2 35/76/2
f 30/77/14 29/78/14 28/79/14 27/80/14 26/81/14 25/82/14
f 22/83/3 23/69/3 39/72/3 37/84/3
f 42/85/2 31/86/2 30/87/2 25/88/2
f 34/89/8 31/90/8 32/91/8 33/92/8
f 36/93/9 34/89/9 33/92/9 35/94/9
f 38/95/10 36/93/10 35/94/10 37/96/10
f 40/97/11 38/95/11 37/96/11 39/98/11
f 42/99/12 40/97/12 39/98/12 41/100/12
f 31/101/13 42/102/13 41/68/13 32/67/13
f 19/103/7 20/45/7 33/48/7 32/104/7
f 34/105/4 36/106/4 28/107/4 29/108/4
f 40/109/6 42/110/6 25/111/6 26/112/6
f 31/113/3 34/105/3 29/108/3 30/114/3
f 36/115/1 38/116/1 27/117/1 28/118/1
f 38/119/7 40/109/7 26/112/7 27/120/7
