# Blender v2.80 (sub 59) OBJ File: 'UFO.blend'
# www.blender.org
mtllib Ufo.mtl
o thursterLeft_Circle.002
v 0.232558 -0.002086 0.019287
v 0.067833 0.106243 0.184012
v -0.005523 -0.104157 0.257368
v -0.053453 -0.001538 -0.175598
v 0.189607 -0.001538 -0.061836
v -0.073386 0.078329 -0.076016
v 0.056430 0.078329 -0.015257
v -0.082262 -0.076791 -0.031670
v -0.002877 -0.076791 0.005486
v -0.038035 -0.001137 -0.135077
v 0.141646 -0.001137 -0.050979
v -0.052770 0.057904 -0.061461
v 0.043195 0.057904 -0.016545
v -0.059332 -0.056767 -0.028678
v -0.000647 -0.056767 -0.001211
v -0.120995 -0.002086 -0.127159
v -0.120995 0.106243 0.105797
v -0.120995 -0.104157 0.209538
vt 0.258222 0.228499
vt 0.346268 0.186593
vt 0.325409 0.368409
vt 0.111725 0.365256
vt 0.234235 0.172356
vt 0.279978 0.149453
vt 0.350118 0.880821
vt 0.185705 0.932721
vt 0.210408 0.894480
vt 0.334066 0.851592
vt 0.157978 0.801952
vt 0.193531 0.794332
vt 0.258222 0.228499
vt 0.234235 0.172356
vt 0.346268 0.186593
vt 0.325409 0.368409
vt 0.111725 0.365256
vt 0.279978 0.149453
vt 0.796758 0.800207
vt 0.650261 0.936963
vt 0.863946 0.940116
vt 0.884805 0.758301
vt 0.818515 0.721160
vt 0.772771 0.744063
vt 0.249220 0.662596
vt 0.383754 0.558987
vt 0.364237 0.606789
vt 0.262051 0.684996
vt 0.383754 0.791608
vt 0.364108 0.781929
vt 0.000000 0.000000
vt 0.000000 0.000000
vt 0.000000 0.000000
vt 0.000000 0.000000
vt 0.000000 0.000000
vt 0.000000 0.000000
vn -0.1721 -0.8932 0.4154
vn -0.1193 0.9502 0.2880
vn 0.6559 -0.7149 -0.2425
vn 0.7698 0.5643 -0.2985
vn -0.6332 -0.7131 -0.3010
vn 0.4368 0.8832 -0.1709
vn 0.0606 0.9884 -0.1390
vn 0.3066 -0.9447 -0.1163
vn 0.0464 -0.9932 -0.1064
vn -0.6523 0.6422 -0.4026
vn 0.2667 0.7772 -0.5699
vn 0.1979 -0.8844 -0.4228
vn -0.2148 0.1995 -0.9561
vn 0.4142 -0.2126 -0.8850
vn -0.2137 -0.2884 -0.9334
vn 0.4001 -0.3305 -0.8548
vn -0.3483 0.4145 0.8408
vn 0.7071 -0.0000 0.7071
vn -1.0000 -0.0000 0.0000
usemtl ship
s off
f 16/1/1 1/2/1 2/3/1 17/4/1
f 1/2/2 16/1/2 18/5/2 3/6/2
f 8/7/3 4/8/3 10/9/3 14/10/3
f 4/8/4 6/11/4 12/12/4 10/9/4
f 18/5/5 16/1/5 4/13/5 8/14/5
f 2/3/6 1/2/6 5/15/6 7/16/6
f 17/4/7 2/3/7 7/16/7 6/17/7
f 1/2/8 3/6/8 9/18/8 5/15/8
f 3/6/9 18/5/9 8/14/9 9/18/9
f 16/1/10 17/4/10 6/17/10 4/13/10
f 10/19/11 12/20/11 13/21/11 11/22/11
f 11/22/12 15/23/12 14/24/12 10/19/12
f 7/25/13 5/26/13 11/27/13 13/28/13
f 6/11/14 7/25/14 13/28/14 12/12/14
f 5/26/15 9/29/15 15/30/15 11/27/15
f 9/29/16 8/7/16 14/10/16 15/30/16
f 2/3/17 17/4/17 18/5/17 3/6/17
f 3/31/18 1/32/18 2/33/18
f 16/34/19 18/35/19 17/36/19
