# Blender v2.80 (sub 59) OBJ File: 'PlatformsPillars.blend'
# www.blender.org
mtllib platform1.mtl
o platform1_Cube
v 0.721745 0.129953 -0.722764
v 0.694455 -0.171481 -0.733796
v 0.661188 0.119027 0.749695
v 0.840060 -0.203492 0.855275
v -0.743426 0.183087 -0.703115
v -0.782854 -0.154149 -0.770023
v -0.782614 0.084580 0.813313
v -0.735902 -0.137877 0.760231
v -0.918864 -0.184850 0.022239
v 0.714152 0.145320 0.084686
v -0.845573 0.142033 -0.113658
v 0.865999 -0.095732 0.008916
v 0.073535 -0.210495 -0.897377
v -0.028878 0.233822 0.818807
v -0.008677 -0.161302 0.841879
v 0.003036 0.151189 -0.695565
v -0.009774 -0.185307 -0.033879
v -0.044157 0.167668 0.050576
v -0.810795 -0.149840 0.437479
v 0.687638 0.173054 0.388723
v -0.836132 0.154201 0.444074
v 0.810462 -0.141095 0.364900
v 0.000581 -0.168261 0.399137
v -0.055542 0.151207 0.403590
v -0.786577 0.181503 -0.310431
v 0.780552 -0.138902 -0.428401
v -0.821957 -0.154163 -0.436738
v 0.798206 0.088125 -0.361068
v -0.085481 0.182656 -0.349766
v 0.030522 -0.177902 -0.462880
v -0.291436 -0.176672 -0.844178
v -0.474384 0.166652 0.882315
v -0.421728 -0.169304 -0.030374
v -0.392501 -0.153998 0.806216
v -0.335862 0.186312 -0.723217
v -0.445387 0.182567 0.055836
v -0.370556 -0.153124 0.380814
v -0.503458 0.171345 0.462399
v -0.377804 -0.177701 -0.473826
v -0.403435 0.176713 -0.332496
v 0.362532 -0.160269 0.789761
v 0.365825 0.137154 -0.752896
v 0.323749 0.161021 0.060441
v 0.348887 -0.222036 -0.864856
v 0.327897 0.166667 0.731249
v 0.434685 -0.168699 -0.022047
v 0.316144 0.194719 0.360982
v 0.401381 -0.158063 0.372089
v 0.321314 0.170657 -0.301291
v 0.380987 -0.208113 -0.448954
v -0.859580 -0.187255 -0.209936
v 0.726852 0.176847 -0.099212
v -0.023285 0.174027 -0.144781
v 0.010944 -0.182735 -0.245645
v -0.801876 0.162547 -0.167082
v 0.869533 -0.104954 -0.217205
v -0.401656 -0.182369 -0.261632
v -0.440026 0.191603 -0.134229
v 0.324910 0.157817 -0.117234
v 0.423536 -0.183844 -0.227476
v -0.696646 0.150306 -0.515477
v 0.781003 -0.169792 -0.611295
v -0.832173 -0.150670 -0.613684
v 0.707604 0.151717 -0.550156
v -0.000071 0.153077 -0.519819
v 0.059864 -0.166640 -0.697499
v -0.413230 0.158797 -0.522039
v -0.293283 -0.154504 -0.642093
v 0.323915 -0.279477 -0.698725
v 0.331206 0.149487 -0.524006
v -0.827318 0.169952 0.173633
v 0.843778 -0.126664 0.200904
v -0.884891 -0.165389 0.210794
v 0.712981 0.214884 0.342295
v -0.002391 -0.173543 0.179424
v -0.046287 0.164619 0.225645
v -0.374792 0.169019 0.219307
v -0.410406 -0.160630 0.185254
v 0.428631 -0.163782 0.170009
v 0.315922 0.166638 0.221324
v 0.652077 -0.147268 0.781103
v 0.550122 0.192744 -0.736295
v 0.509184 0.172429 0.058859
v 0.481359 0.165592 0.370437
v 0.507483 0.149905 -0.310424
v 0.505529 -0.169185 -0.749078
v 0.507082 0.130187 0.757182
v 0.719336 -0.146283 0.009442
v 0.629555 -0.150386 0.368366
v 0.580532 -0.176746 -0.402682
v 0.506019 0.156905 -0.114059
v 0.699730 -0.164510 -0.202464
v 0.508233 0.151978 -0.517253
v 0.515949 -0.178452 -0.578538
v 0.495175 0.165559 0.226774
v 0.700113 -0.151186 0.180223
v -0.822503 -0.095798 0.636466
v 0.672743 0.144475 0.519300
v 0.005361 -0.177070 0.620394
v -0.082622 0.150712 0.589446
v -0.828545 0.151534 0.655436
v 0.823368 -0.155233 0.570616
v -0.414225 -0.149802 0.627782
v -0.570795 0.156817 0.704707
v 0.326294 0.166337 0.517542
v 0.365412 -0.150539 0.576204
v 0.513006 0.139566 0.603888
v 0.640774 -0.150000 0.574655
v 0.246465 -0.192488 -0.920971
v 0.162020 0.199394 0.751934
v 0.195505 -0.180398 -0.036297
v 0.193609 -0.162748 0.391655
v 0.206629 -0.186283 -0.471589
v 0.163193 -0.155106 0.837713
v 0.167736 0.149420 -0.792749
v 0.134080 0.166448 0.049768
v 0.141422 0.162999 0.368135
v 0.136148 0.178058 -0.305017
v 0.208029 -0.184433 -0.245080
v 0.154881 0.170410 -0.145639
v 0.208582 -0.172465 -0.730133
v 0.163054 0.144917 -0.542634
v 0.202555 -0.170637 0.174916
v 0.128802 0.168357 0.218604
v 0.167847 -0.153304 0.622470
v 0.157063 0.151554 0.526476
v -0.189920 -0.154658 0.841841
v -0.167978 0.107245 -0.811512
v -0.230933 0.161511 0.057885
v -0.284700 0.150794 0.444348
v -0.193632 0.175533 -0.337622
v -0.087908 -0.167111 -0.785966
v -0.246959 0.199394 0.863073
v -0.206160 -0.176453 -0.028085
v -0.195049 -0.160024 0.406162
v -0.158230 -0.174406 -0.438728
v -0.219360 0.167084 -0.131402
v -0.185446 -0.182804 -0.241228
v -0.175591 0.156991 -0.517270
v -0.110319 -0.154606 -0.584067
v -0.209512 0.159905 0.226110
v -0.204615 -0.168046 0.181660
v -0.341502 0.150838 0.679685
v -0.206049 -0.150856 0.663649
v -0.563386 -0.165126 -0.873732
v -0.642883 0.152200 0.870386
v -0.677882 -0.154171 -0.015305
v -0.605402 -0.150000 0.432795
v -0.674989 -0.193819 -0.559928
v -0.610645 -0.153131 0.845439
v -0.552692 0.153756 -0.736874
v -0.616208 0.196131 0.051176
v -0.646342 0.187479 0.429977
v -0.592975 0.186061 -0.331631
v -0.621766 -0.199612 -0.301048
v -0.600727 0.213464 -0.181799
v -0.661013 -0.165272 -0.737493
v -0.519185 0.156488 -0.520480
v -0.652324 -0.150313 0.207307
v -0.612626 0.169497 0.276351
v -0.677396 -0.157962 0.599278
v -0.702907 0.150672 0.709616
v 0.736594 -0.087705 -0.727561
v -0.814448 -0.007743 0.853306
v 0.837665 -0.081030 0.873658
v -0.819761 -0.078998 -0.778455
v 0.866209 -0.020734 0.031835
v -0.924399 0.000014 0.026603
v 0.058085 -0.056950 -0.881751
v -0.017666 0.025663 0.856192
v -0.871799 -0.062201 0.485895
v 0.861567 -0.027582 0.468776
v 0.849277 -0.010316 -0.422776
v -0.844731 0.038736 -0.309854
v -0.403504 0.026763 -0.889403
v -0.428448 0.033683 0.893118
v 0.337546 0.031310 0.798875
v 0.365099 -0.022234 -0.842819
v -0.903133 -0.051584 -0.172673
v 0.832989 0.057600 -0.151989
v 0.880393 0.008438 -0.573953
v -0.824205 -0.001111 -0.570103
v 0.806141 0.003839 0.247698
v -0.903401 0.006600 0.219202
v 0.602515 -0.019069 0.821668
v 0.530239 -0.019405 -0.753489
v -0.867450 -0.018163 0.701060
v 0.806663 -0.001379 0.558212
v 0.200220 0.048565 -0.861878
v 0.164362 -0.013868 0.887558
v -0.206215 -0.013868 0.935759
v -0.100320 -0.007075 -0.775739
v -0.551999 -0.043284 -0.837810
v -0.627523 -0.014512 0.908857
vt 0.389620 0.383060
vt 0.411417 0.373194
vt 0.406531 0.404779
vt 0.377924 0.409573
vt 0.386114 0.440423
vt 0.420620 0.420294
vt 0.431000 0.130847
vt 0.391357 0.148590
vt 0.393122 0.115018
vt 0.429106 0.082030
vt 0.888170 0.091594
vt 0.887123 0.050456
vt 0.930018 0.057309
vt 0.935607 0.090290
vt 0.096147 0.371754
vt 0.131503 0.357599
vt 0.136059 0.399973
vt 0.094017 0.434137
vt 0.130288 0.081071
vt 0.139424 0.119457
vt 0.111994 0.121319
vt 0.084737 0.092684
vt 0.081342 0.230948
vt 0.113630 0.240386
vt 0.116144 0.277139
vt 0.067931 0.271624
vt 0.712359 0.082978
vt 0.708351 0.045035
vt 0.757369 0.041210
vt 0.759142 0.076203
vt 0.452295 0.293503
vt 0.416266 0.283463
vt 0.420938 0.227761
vt 0.455224 0.253142
vt 0.371871 0.214578
vt 0.411863 0.217038
vt 0.375257 0.259235
vt 0.224401 0.224617
vt 0.259332 0.223336
vt 0.264723 0.261285
vt 0.230206 0.262593
vt 0.706632 0.279075
vt 0.705076 0.235378
vt 0.752206 0.239426
vt 0.754000 0.282953
vt 0.269456 0.069514
vt 0.288949 0.088671
vt 0.250100 0.109510
vt 0.233926 0.050611
vt 0.907243 0.283332
vt 0.897926 0.236031
vt 0.946966 0.239963
vt 0.946929 0.280144
vt 0.227020 0.447644
vt 0.233178 0.398675
vt 0.269414 0.405849
vt 0.262720 0.443480
vt 0.230717 0.354640
vt 0.276440 0.362997
vt 0.232791 0.295195
vt 0.266415 0.295000
vt 0.269632 0.328772
vt 0.231823 0.324039
vt 0.800387 0.282325
vt 0.799695 0.237380
vt 0.848665 0.236665
vt 0.850111 0.280250
vt 0.439145 0.392338
vt 0.416431 0.335766
vt 0.458671 0.351110
vt 0.085744 0.316150
vt 0.127430 0.320969
vt 0.128576 0.332087
vt 0.082726 0.357114
vt 0.797750 0.079321
vt 0.800657 0.046599
vt 0.839720 0.051129
vt 0.841196 0.094122
vt 0.374553 0.302753
vt 0.380148 0.332020
vt 0.628524 0.263810
vt 0.604950 0.223660
vt 0.656539 0.231497
vt 0.662274 0.273777
vt 0.218422 0.145249
vt 0.252094 0.147862
vt 0.270366 0.182408
vt 0.226671 0.192936
vt 0.356184 0.148251
vt 0.405348 0.190308
vt 0.370001 0.185546
vt 0.631415 0.123327
vt 0.625411 0.071047
vt 0.662471 0.064947
vt 0.669564 0.109360
vt 0.070719 0.140459
vt 0.114281 0.150706
vt 0.091886 0.187353
vt 0.068735 0.173345
vt 0.458671 0.210306
vt 0.434427 0.185331
vt 0.287999 0.148179
vt 0.335663 0.148043
vt 0.333422 0.185208
vt 0.291885 0.184381
vt 0.602869 0.384084
vt 0.617816 0.305869
vt 0.656007 0.322883
vt 0.639424 0.387490
vt 0.297585 0.294007
vt 0.329098 0.291991
vt 0.353637 0.337526
vt 0.312777 0.334837
vt 0.806174 0.380407
vt 0.801361 0.327670
vt 0.844349 0.319039
vt 0.855512 0.370820
vt 0.891978 0.386479
vt 0.898479 0.329000
vt 0.938455 0.325929
vt 0.940809 0.370941
vt 0.371033 0.063168
vt 0.362630 0.106983
vt 0.321560 0.109666
vt 0.335225 0.064222
vt 0.695433 0.376026
vt 0.703060 0.327091
vt 0.754175 0.330425
vt 0.758649 0.385707
vt 0.297775 0.224944
vt 0.340888 0.223709
vt 0.342309 0.260468
vt 0.300836 0.261651
vt 0.301524 0.455731
vt 0.307763 0.412678
vt 0.349235 0.414113
vt 0.345021 0.440695
vt 0.324237 0.377931
vt 0.365609 0.381692
vt 0.601703 0.192594
vt 0.609398 0.164951
vt 0.659304 0.153572
vt 0.654704 0.192538
vt 0.151492 0.155765
vt 0.185147 0.151571
vt 0.190087 0.195609
vt 0.153049 0.195960
vt 0.798427 0.191641
vt 0.796798 0.140837
vt 0.842500 0.146456
vt 0.847036 0.193399
vt 0.162663 0.300429
vt 0.196826 0.297633
vt 0.198323 0.324949
vt 0.166773 0.328888
vt 0.162658 0.372958
vt 0.198021 0.354952
vt 0.199816 0.396799
vt 0.164089 0.402121
vt 0.141499 0.430143
vt 0.194018 0.426145
vt 0.155990 0.234628
vt 0.191346 0.231957
vt 0.193522 0.266625
vt 0.157340 0.268737
vt 0.251520 0.702321
vt 0.254865 0.654435
vt 0.300497 0.651026
vt 0.297969 0.704501
vt 0.204017 0.072142
vt 0.212701 0.095867
vt 0.172711 0.105499
vt 0.167633 0.066721
vt 0.898848 0.199402
vt 0.888869 0.154648
vt 0.938164 0.155938
vt 0.946882 0.201765
vt 0.708145 0.143684
vt 0.704799 0.191570
vt 0.568158 0.181857
vt 0.579623 0.164313
vt 0.576257 0.365935
vt 0.572795 0.310964
vt 0.592388 0.124031
vt 0.603179 0.087033
vt 0.574577 0.256685
vt 0.568932 0.210956
vt 0.751249 0.193750
vt 0.753776 0.140275
vt 0.321493 0.816912
vt 0.320224 0.771173
vt 0.368833 0.772931
vt 0.370463 0.816197
vt 0.368885 0.728525
vt 0.372457 0.680508
vt 0.419825 0.684386
vt 0.420001 0.731858
vt 0.856477 0.417085
vt 0.902986 0.420249
vt 0.766628 0.434496
vt 0.805339 0.429959
vt 0.595162 0.408033
vt 0.625299 0.420029
vt 0.664697 0.423581
vt 0.718158 0.427539
vt 0.926788 0.397119
vt 0.984406 0.338462
vt 0.970598 0.382174
vt 0.587166 0.424452
vt 0.550652 0.375965
vt 0.526363 0.342879
vt 0.532170 0.262064
vt 0.986804 0.241689
vt 0.984899 0.286233
vt 0.980261 0.157100
vt 0.981004 0.200162
vt 0.538810 0.216192
vt 0.520912 0.179777
vt 0.864491 0.022931
vt 0.886698 0.017754
vt 0.954742 0.422345
vt 0.921318 0.436883
vt 0.543999 0.145636
vt 0.560984 0.105612
vt 0.949733 0.041101
vt 0.967558 0.097921
vt 0.871778 0.438963
vt 0.815090 0.466566
vt 0.761945 0.024037
vt 0.812431 0.016838
vt 0.685993 0.474342
vt 0.627707 0.453664
vt 0.594471 0.069352
vt 0.626031 0.028374
vt 0.660678 0.032071
vt 0.718533 0.009154
vt 0.771366 0.473267
vt 0.724393 0.460783
vn -0.3486 0.8885 0.2984
vn -0.3599 0.2914 0.8863
vn -0.9017 0.4297 0.0475
vn -0.1477 -0.9855 -0.0829
vn 0.7142 0.6916 0.1077
vn 0.1206 0.0493 -0.9915
vn 0.7599 0.6333 0.1468
vn 0.3303 -0.9427 0.0470
vn -0.8816 0.4705 0.0383
vn -0.2604 0.9627 0.0734
vn 0.0137 0.9995 0.0279
vn -0.0222 -0.9997 0.0067
vn 0.0350 0.4334 -0.9005
vn -0.0800 -0.9963 0.0303
vn 0.1619 0.3792 0.9110
vn -0.0082 0.9612 -0.2757
vn -0.0351 0.9977 0.0575
vn -0.0338 -0.9990 0.0309
vn -0.9814 0.1916 0.0089
vn 0.8386 0.5421 0.0541
vn 0.1040 -0.9945 -0.0078
vn -0.0780 0.9969 -0.0131
vn -0.0803 -0.9920 -0.0974
vn 0.0408 0.9892 -0.1409
vn -0.0404 0.9848 -0.1687
vn 0.1081 -0.9916 0.0708
vn 0.7392 0.6727 0.0336
vn -0.9097 0.4074 -0.0803
vn 0.0066 0.9952 -0.0981
vn 0.0746 -0.9891 -0.1268
vn 0.0784 0.9957 0.0493
vn -0.0245 -0.9994 0.0236
vn 0.0151 -0.9999 -0.0017
vn -0.2495 0.6102 -0.7520
vn -0.0013 -0.9937 0.1123
vn 0.1036 0.9937 0.0429
vn -0.0433 0.2239 0.9736
vn -0.0699 0.9899 -0.1231
vn -0.4247 -0.8933 0.1472
vn 0.0499 0.9978 -0.0431
vn 0.0285 -0.9990 0.0349
vn 0.0910 0.9914 -0.0940
vn 0.1625 0.9864 0.0262
vn -0.0186 0.4153 0.9095
vn -0.0284 0.9982 -0.0532
vn 0.0237 -0.9986 0.0463
vn 0.2523 0.5268 -0.8117
vn -0.0125 -0.9996 -0.0271
vn -0.0609 -0.9961 0.0640
vn 0.0591 0.9981 0.0150
vn 0.0596 0.9982 -0.0067
vn 0.0708 -0.9971 -0.0266
vn -0.8961 0.3497 -0.2734
vn -0.0114 -0.9994 -0.0332
vn 0.0160 0.9990 0.0411
vn -0.1426 0.9890 -0.0397
vn 0.2527 -0.9674 -0.0193
vn 0.7984 0.6004 -0.0452
vn -0.1608 0.9864 0.0351
vn -0.4722 -0.8642 -0.1737
vn -0.0131 -0.9980 0.0611
vn 0.1934 0.9811 -0.0108
vn 0.7703 0.4372 -0.4642
vn 0.0128 -0.9995 -0.0301
vn 0.0690 0.9958 0.0604
vn 0.0327 0.9994 0.0067
vn -0.0758 -0.9884 0.1318
vn -0.7905 0.5489 -0.2715
vn -0.0283 0.9996 0.0019
vn 0.0391 -0.9986 0.0362
vn -0.0486 -0.9983 0.0326
vn 0.0786 0.9966 0.0237
vn -0.1215 0.9926 0.0027
vn 0.2541 -0.9649 -0.0663
vn 0.8383 0.5451 0.0000
vn -0.0350 -0.9982 0.0483
vn -0.0071 1.0000 0.0032
vn -0.9500 0.2997 0.0875
vn 0.0625 -0.9980 0.0044
vn -0.0032 0.9893 -0.1459
vn 0.4824 -0.8630 -0.1501
vn 0.1708 0.9827 0.0721
vn 0.0987 -0.9939 0.0482
vn 0.0665 0.9788 -0.1939
vn 0.0125 0.9989 0.0451
vn -0.0135 0.4666 0.8844
vn 0.0469 0.9946 0.0924
vn -0.1846 0.9672 0.1746
vn 0.1462 0.9807 0.1295
vn 0.2880 -0.9542 0.0815
vn 0.0402 -0.9988 0.0268
vn 0.0665 -0.9950 0.0747
vn 0.2409 0.2565 -0.9360
vn 0.0236 -0.9996 -0.0171
vn 0.0165 -0.9997 0.0203
vn -0.0065 0.9889 0.1486
vn 0.0253 -0.9988 0.0426
vn 0.1226 0.9847 0.1242
vn 0.0635 0.9969 0.0467
vn 0.0097 -0.9999 -0.0085
vn -0.8732 0.3474 0.3419
vn -0.0213 0.9992 0.0340
vn -0.0844 -0.9964 -0.0004
vn 0.6885 0.6892 0.2259
vn 0.0105 -0.9994 -0.0340
vn -0.1106 0.9915 0.0687
vn -0.1266 0.9828 0.1347
vn 0.0822 -0.9966 0.0052
vn 0.0197 0.9996 -0.0220
vn 0.0199 -0.9986 0.0500
vn 0.0233 0.9996 -0.0144
vn 0.0669 -0.9832 0.1696
vn 0.0510 0.9971 0.0562
vn -0.0272 -0.9996 -0.0078
vn 0.0894 -0.9954 0.0357
vn -0.3708 0.5269 -0.7648
vn 0.0080 -1.0000 0.0041
vn 0.0221 -0.9993 0.0305
vn -0.0505 -0.9973 -0.0539
vn 0.0153 0.9931 -0.1159
vn -0.0833 0.9937 -0.0744
vn 0.0435 0.9930 -0.1096
vn 0.2504 0.4940 0.8326
vn 0.0495 0.9988 0.0049
vn -0.0242 -0.9995 0.0221
vn -0.0003 1.0000 0.0010
vn -0.0344 -0.9986 0.0411
vn -0.0307 0.9994 0.0153
vn -0.0013 -0.9963 0.0854
vn -0.0782 0.9908 -0.1106
vn 0.0105 -0.9995 -0.0306
vn -0.0424 0.9981 0.0452
vn -0.1406 0.9567 -0.2547
vn 0.2346 0.2726 0.9331
vn -0.0327 0.9991 0.0282
vn -0.0072 0.9984 0.0552
vn -0.0185 0.9897 -0.1417
vn 0.0358 -0.9920 -0.1209
vn -0.0399 -0.9983 0.0416
vn -0.0003 -0.9997 -0.0224
vn 0.1500 0.4251 -0.8926
vn -0.0197 -0.9989 0.0418
vn 0.0257 0.9943 0.1039
vn -0.1644 -0.9826 0.0862
vn 0.0462 0.9945 0.0940
vn 0.0997 -0.9941 0.0419
vn -0.1090 0.9929 0.0475
vn -0.0829 -0.9961 -0.0303
vn 0.1024 0.9890 -0.1071
vn -0.1735 -0.9821 -0.0731
vn 0.0666 -0.9921 0.1065
vn -0.1892 0.3790 -0.9059
vn -0.2783 -0.9603 0.0187
vn 0.0345 -0.9991 0.0258
vn -0.2349 -0.9678 -0.0900
vn 0.0227 0.9924 -0.1207
vn 0.0414 0.9986 -0.0342
vn 0.0956 0.9932 0.0666
vn -0.0168 0.1589 0.9872
vn -0.0683 0.9977 -0.0019
vn 0.1637 -0.3908 0.9058
vn -0.3202 0.0901 -0.9431
vn 0.3220 0.0191 -0.9466
vn 0.2258 -0.2897 0.9301
vn 0.3541 -0.1385 0.9249
vn -0.0796 0.1734 -0.9816
vn 0.9737 -0.1751 0.1457
vn -0.7121 -0.6408 0.2867
vn 0.5399 -0.0208 -0.8414
vn -0.3456 -0.2821 0.8950
vn -0.9324 -0.3217 0.1650
vn 0.9739 0.1101 0.1982
vn -0.9992 -0.0328 -0.0208
vn 0.7788 -0.3322 -0.5320
vn 0.9882 -0.0769 -0.1328
vn -0.9777 -0.1281 -0.1665
vn 0.3320 0.1926 -0.9234
vn -0.0360 -0.1616 0.9862
vn -0.2115 -0.4969 0.8416
vn -0.0463 -0.0429 -0.9980
vn -0.9603 -0.0575 -0.2729
vn 0.8667 -0.4888 0.0997
vn 0.9981 -0.0183 -0.0595
vn -0.7934 -0.5954 0.1269
vn -0.0933 -0.1932 0.9767
vn -0.5583 0.0188 -0.8294
vn -0.9865 -0.0717 0.1472
vn 0.9851 0.1667 -0.0432
vn 0.1000 -0.0208 -0.9948
vn 0.9955 0.0702 -0.0642
vn -0.9867 -0.1081 -0.1213
vn -0.3726 -0.5622 0.7383
usemtl terrainMat
s off
f 162/1/1 101/2/1 7/3/1 146/4/1
f 194/5/2 146/4/2 7/3/2 164/6/2
f 182/7/3 61/8/3 5/9/3 166/10/3
f 108/11/4 102/12/4 4/13/4 81/14/4
f 188/15/5 98/16/5 3/17/5 165/18/5
f 186/19/6 82/20/6 1/21/6 163/22/6
f 180/23/7 52/24/7 10/25/7 167/26/7
f 92/27/8 56/28/8 12/29/8 88/30/8
f 184/31/9 71/32/9 11/33/9 168/34/9
f 156/35/10 55/36/10 11/33/10 152/37/10
f 120/38/11 53/39/11 18/40/11 116/41/11
f 138/42/12 54/43/12 17/44/12 134/45/12
f 192/46/13 128/47/13 16/48/13 169/49/13
f 144/50/14 99/51/14 15/52/14 127/53/14
f 190/54/15 110/55/15 14/56/15 170/57/15
f 126/58/16 100/59/16 14/56/16 110/55/16
f 124/60/17 76/61/17 24/62/17 117/63/17
f 142/64/18 75/65/18 23/66/18 135/67/18
f 187/68/19 101/2/19 21/69/19 171/70/19
f 183/71/20 74/72/20 20/73/20 172/74/20
f 96/75/21 72/76/21 22/77/21 89/78/21
f 160/79/22 71/32/22 21/69/22 153/80/22
f 140/81/23 66/82/23 30/83/23 136/84/23
f 122/85/24 65/86/24 29/87/24 118/88/24
f 158/89/25 61/8/25 25/90/25 154/91/25
f 94/92/26 62/93/26 26/94/26 90/95/26
f 181/96/27 64/97/27 28/98/27 173/99/27
f 179/100/28 55/36/28 25/90/28 174/101/28
f 139/102/29 67/103/29 40/104/29 131/105/29
f 157/106/30 68/107/30 39/108/30 149/109/30
f 141/110/31 77/111/31 38/112/31 130/113/31
f 159/114/32 78/115/32 37/116/32 148/117/32
f 161/118/33 103/119/33 34/120/33 150/121/33
f 193/122/34 151/123/34 35/124/34 175/125/34
f 155/126/35 57/127/35 33/128/35 147/129/35
f 137/130/36 58/131/36 36/132/36 129/133/36
f 191/134/37 133/135/37 32/136/37 176/137/37
f 143/138/38 104/139/38 32/136/38 133/135/38
f 121/140/39 69/141/39 50/142/39 113/143/39
f 93/144/40 70/145/40 49/146/40 85/147/40
f 123/148/41 79/149/41 48/150/41 112/151/41
f 95/152/42 80/153/42 47/154/42 84/155/42
f 107/156/43 105/157/43 45/158/43 87/159/43
f 185/160/44 87/159/44 45/158/44 177/161/44
f 91/162/45 59/163/45 43/164/45 83/165/45
f 119/166/46 60/167/46 46/168/46 111/169/46
f 189/170/47 115/171/47 42/172/47 178/173/47
f 125/174/48 106/175/48 41/176/48 114/177/48
f 113/143/49 50/142/49 60/178/49 119/179/49
f 85/147/50 49/146/50 59/163/50 91/162/50
f 131/105/51 40/104/51 58/131/51 137/130/51
f 149/109/52 39/108/52 57/127/52 155/126/52
f 168/34/53 11/33/53 55/36/53 179/100/53
f 136/84/54 30/83/54 54/43/54 138/42/54
f 118/88/55 29/87/55 53/39/55 120/38/55
f 154/91/56 25/90/56 55/36/56 156/35/56
f 90/95/57 26/94/57 56/28/57 92/27/57
f 173/99/58 28/98/58 52/24/58 180/23/58
f 82/20/59 42/172/59 70/145/59 93/144/59
f 109/180/60 44/181/60 69/141/60 121/140/60
f 145/182/61 31/183/61 68/107/61 157/106/61
f 128/47/62 35/124/62 67/103/62 139/102/62
f 163/22/63 1/21/63 64/97/63 181/96/63
f 86/184/64 2/185/64 62/93/64 94/92/64
f 151/123/65 5/9/65 61/8/65 158/89/65
f 115/171/66 16/48/66 65/86/66 122/85/66
f 132/186/67 13/187/67 66/82/67 140/81/67
f 174/101/68 25/90/68 61/8/68 182/7/68
f 83/165/69 43/164/69 80/153/69 95/152/69
f 111/188/70 46/189/70 79/149/70 123/148/70
f 147/129/71 33/128/71 78/115/71 159/114/71
f 129/133/72 36/132/72 77/111/72 141/110/72
f 152/37/73 11/33/73 71/32/73 160/79/73
f 88/30/74 12/29/74 72/76/74 96/75/74
f 167/26/75 10/25/75 74/72/75 183/71/75
f 134/45/76 17/44/76 75/65/76 142/64/76
f 116/41/77 18/40/77 76/61/77 124/60/77
f 171/70/78 21/69/78 71/32/78 184/31/78
f 46/189/79 88/30/79 96/75/79 79/149/79
f 10/25/80 83/165/80 95/152/80 74/72/80
f 44/181/81 86/184/81 94/92/81 69/141/81
f 1/21/82 82/20/82 93/144/82 64/97/82
f 50/142/83 90/95/83 92/27/83 60/178/83
f 28/98/84 85/147/84 91/162/84 52/24/84
f 52/24/85 91/162/85 83/165/85 10/25/85
f 165/18/86 3/17/86 87/159/86 185/160/86
f 98/16/87 107/156/87 87/159/87 3/17/87
f 74/72/88 95/152/88 84/155/88 20/73/88
f 64/97/89 93/144/89 85/147/89 28/98/89
f 69/141/90 94/92/90 90/95/90 50/142/90
f 79/149/91 96/75/91 89/78/91 48/150/91
f 60/178/92 92/27/92 88/30/92 46/189/92
f 178/173/93 42/172/93 82/20/93 186/19/93
f 106/175/94 108/11/94 81/14/94 41/176/94
f 48/150/95 89/78/95 108/11/95 106/175/95
f 20/73/96 84/155/96 107/156/96 98/16/96
f 112/151/97 48/150/97 106/175/97 125/174/97
f 84/155/98 47/154/98 105/157/98 107/156/98
f 130/113/99 38/112/99 104/139/99 143/138/99
f 148/117/100 37/116/100 103/119/100 161/118/100
f 164/6/101 7/3/101 101/2/101 187/68/101
f 117/63/102 24/62/102 100/59/102 126/58/102
f 135/67/103 23/66/103 99/51/103 144/50/103
f 172/74/104 20/73/104 98/16/104 188/15/104
f 89/78/105 22/77/105 102/12/105 108/11/105
f 153/80/106 21/69/106 101/2/106 162/1/106
f 47/154/107 117/63/107 126/58/107 105/157/107
f 23/66/108 112/151/108 125/174/108 99/51/108
f 43/164/109 116/41/109 124/60/109 80/153/109
f 17/44/110 111/188/110 123/148/110 75/65/110
f 42/172/111 115/171/111 122/85/111 70/145/111
f 13/187/112 109/180/112 121/140/112 66/82/112
f 49/146/113 118/88/113 120/38/113 59/163/113
f 30/83/114 113/143/114 119/179/114 54/43/114
f 99/51/115 125/174/115 114/177/115 15/52/115
f 169/49/116 16/48/116 115/171/116 189/170/116
f 54/43/117 119/179/117 111/188/117 17/44/117
f 75/190/118 123/191/118 112/192/118 23/193/118
f 66/82/119 121/140/119 113/143/119 30/83/119
f 70/145/120 122/85/120 118/88/120 49/146/120
f 80/153/121 124/60/121 117/63/121 47/154/121
f 105/157/122 126/58/122 110/55/122 45/158/122
f 177/161/123 45/158/123 110/55/123 190/54/123
f 59/163/124 120/38/124 116/41/124 43/164/124
f 37/116/125 135/67/125 144/50/125 103/119/125
f 24/62/126 130/113/126 143/138/126 100/59/126
f 33/128/127 134/45/127 142/64/127 78/115/127
f 18/40/128 129/133/128 141/110/128 76/61/128
f 31/183/129 132/186/129 140/81/129 68/107/129
f 16/48/130 128/47/130 139/102/130 65/86/130
f 39/108/131 136/84/131 138/42/131 57/127/131
f 29/87/132 131/105/132 137/130/132 53/39/132
f 100/59/133 143/138/133 133/135/133 14/56/133
f 170/57/134 14/56/134 133/135/134 191/134/134
f 53/39/135 137/130/135 129/133/135 18/40/135
f 76/61/136 141/110/136 130/113/136 24/62/136
f 65/86/137 139/102/137 131/105/137 29/87/137
f 68/107/138 140/81/138 136/84/138 39/108/138
f 78/115/139 142/64/139 135/67/139 37/116/139
f 103/119/140 144/50/140 127/53/140 34/120/140
f 175/125/141 35/124/141 128/47/141 192/46/141
f 57/194/142 138/195/142 134/196/142 33/197/142
f 38/112/143 153/80/143 162/1/143 104/139/143
f 19/198/144 148/117/144 161/118/144 97/199/144
f 36/132/145 152/37/145 160/79/145 77/111/145
f 9/200/146 147/129/146 159/114/146 73/201/146
f 35/124/147 151/123/147 158/89/147 67/103/147
f 6/202/148 145/182/148 157/106/148 63/203/148
f 40/104/149 154/91/149 156/35/149 58/131/149
f 27/204/150 149/109/150 155/126/150 51/205/150
f 51/205/151 155/126/151 147/129/151 9/200/151
f 166/10/152 5/9/152 151/123/152 193/122/152
f 97/199/153 161/118/153 150/121/153 8/206/153
f 73/201/154 159/114/154 148/117/154 19/198/154
f 63/203/155 157/106/155 149/109/155 27/204/155
f 67/103/156 158/89/156 154/91/156 40/104/156
f 77/111/157 160/79/157 153/80/157 38/112/157
f 58/131/158 156/35/158 152/37/158 36/132/158
f 176/137/159 32/136/159 146/4/159 194/5/159
f 104/139/160 162/1/160 146/4/160 32/136/160
f 34/120/161 176/207/161 194/208/161 150/121/161
f 6/202/162 166/209/162 193/210/162 145/182/162
f 31/183/163 175/211/163 192/212/163 132/186/163
f 15/52/164 170/213/164 191/214/164 127/53/164
f 41/176/165 177/215/165 190/216/165 114/177/165
f 13/187/166 169/217/166 189/218/166 109/180/166
f 22/77/167 172/219/167 188/220/167 102/12/167
f 8/206/168 164/221/168 187/222/168 97/199/168
f 44/181/169 178/223/169 186/224/169 86/184/169
f 4/13/170 165/225/170 185/226/170 81/14/170
f 19/198/171 171/227/171 184/228/171 73/201/171
f 12/29/172 167/229/172 183/230/172 72/76/172
f 27/204/173 174/231/173 182/232/173 63/203/173
f 2/185/174 163/233/174 181/234/174 62/93/174
f 26/94/175 173/235/175 180/236/175 56/28/175
f 9/200/176 168/237/176 179/238/176 51/205/176
f 109/180/177 189/218/177 178/223/177 44/181/177
f 81/14/178 185/226/178 177/215/178 41/176/178
f 127/53/179 191/214/179 176/207/179 34/120/179
f 145/182/180 193/210/180 175/211/180 31/183/180
f 51/205/181 179/238/181 174/231/181 27/204/181
f 62/93/182 181/234/182 173/235/182 26/94/182
f 72/76/183 183/230/183 172/219/183 22/77/183
f 97/199/184 187/222/184 171/227/184 19/198/184
f 114/177/185 190/216/185 170/213/185 15/52/185
f 132/186/186 192/212/186 169/217/186 13/187/186
f 73/201/187 184/228/187 168/237/187 9/200/187
f 56/28/188 180/236/188 167/229/188 12/29/188
f 86/184/189 186/224/189 163/233/189 2/185/189
f 102/12/190 188/220/190 165/225/190 4/13/190
f 63/203/191 182/232/191 166/209/191 6/202/191
f 150/121/192 194/208/192 164/221/192 8/206/192
