# Blender v2.80 (sub 59) OBJ File: 'UFO.blend'
# www.blender.org
mtllib Ufo.mtl
o thruster_Right_Circle.006
v 0.000000 0.000000 -0.500000
v -0.353553 0.000000 -0.353553
v 0.000000 0.108329 -0.267044
v -0.188829 0.108329 -0.188829
v 0.000000 -0.102071 -0.163303
v -0.115473 -0.102071 -0.115473
v -0.067542 0.000548 -0.548439
v -0.310603 0.000548 -0.434677
v -0.047609 0.080415 -0.448857
v -0.177425 0.080415 -0.388098
v -0.038733 -0.074705 -0.404510
v -0.118118 -0.074705 -0.367355
v -0.082961 0.000949 -0.507918
v -0.262642 0.000949 -0.423819
v -0.068225 0.059990 -0.434302
v -0.164191 0.059990 -0.389386
v -0.061663 -0.054681 -0.401519
v -0.120348 -0.054681 -0.374052
vt 0.258222 0.228499
vt 0.111725 0.365256
vt 0.325409 0.368409
vt 0.346268 0.186593
vt 0.279978 0.149453
vt 0.234235 0.172356
vt 0.350118 0.880821
vt 0.334066 0.851592
vt 0.210408 0.894480
vt 0.185705 0.932721
vt 0.193531 0.794332
vt 0.157978 0.801952
vt 0.234235 0.172356
vt 0.258222 0.228499
vt 0.325409 0.368409
vt 0.346268 0.186593
vt 0.111725 0.365256
vt 0.279978 0.149453
vt 0.796758 0.800207
vt 0.884805 0.758301
vt 0.863946 0.940116
vt 0.650261 0.936963
vt 0.772771 0.744063
vt 0.818515 0.721160
vt 0.249220 0.662596
vt 0.262051 0.684996
vt 0.364237 0.606789
vt 0.383754 0.558987
vt 0.364108 0.781929
vt 0.383754 0.791608
vt 0.000000 0.000000
vt 0.000000 0.000000
vt 0.000000 0.000000
vt 0.000000 0.000000
vt 0.000000 0.000000
vt 0.000000 0.000000
vn 0.1721 -0.8932 0.4154
vn 0.1193 0.9502 0.2880
vn -0.6559 -0.7149 -0.2425
vn -0.7698 0.5643 -0.2985
vn 0.6332 -0.7131 -0.3010
vn -0.4368 0.8832 -0.1709
vn -0.0606 0.9884 -0.1390
vn -0.3066 -0.9447 -0.1163
vn -0.0464 -0.9932 -0.1064
vn 0.6523 0.6422 -0.4026
vn -0.2667 0.7772 -0.5699
vn -0.1979 -0.8844 -0.4228
vn 0.2148 0.1995 -0.9561
vn -0.4142 -0.2126 -0.8850
vn 0.2137 -0.2884 -0.9334
vn -0.4001 -0.3305 -0.8548
vn 0.3483 0.4145 0.8408
vn 1.0000 0.0000 0.0000
vn -0.7071 -0.0000 0.7071
usemtl ship
s off
f 1/1/1 3/2/1 4/3/1 2/4/1
f 2/4/2 6/5/2 5/6/2 1/1/2
f 11/7/3 17/8/3 13/9/3 7/10/3
f 7/10/4 13/9/4 15/11/4 9/12/4
f 5/6/5 11/13/5 7/14/5 1/1/5
f 4/3/6 10/15/6 8/16/6 2/4/6
f 3/2/7 9/17/7 10/15/7 4/3/7
f 2/4/8 8/16/8 12/18/8 6/5/8
f 6/5/9 12/18/9 11/13/9 5/6/9
f 1/1/10 7/14/10 9/17/10 3/2/10
f 13/19/11 14/20/11 16/21/11 15/22/11
f 14/20/12 13/19/12 17/23/12 18/24/12
f 10/25/13 16/26/13 14/27/13 8/28/13
f 9/12/14 15/11/14 16/26/14 10/25/14
f 8/28/15 14/27/15 18/29/15 12/30/15
f 12/30/16 18/29/16 17/8/16 11/7/16
f 3/2/17 4/3/17 6/5/17 5/6/17
f 5/31/18 1/32/18 3/33/18
f 2/34/19 6/35/19 4/36/19
