# Blender v2.80 (sub 55) OBJ File: 'Ufo.blend'
# www.blender.org
mtllib Ufo.mtl
o Circle
v 0.000000 0.000000 -1.000000
v -0.707107 0.000000 -0.707107
v -1.000000 0.000000 0.000000
v -0.707107 0.000000 0.707107
v 0.000000 0.000000 1.000000
v 0.707107 0.000000 0.707107
v 1.000000 0.000000 -0.000000
v 0.707107 0.000000 -0.707107
v 0.000000 0.216658 -0.534088
v -0.377657 0.216658 -0.377657
v -0.534088 0.216658 0.000000
v -0.377657 0.216658 0.377657
v 0.000000 0.216658 0.534088
v 0.377657 0.216658 0.377657
v 0.534088 0.216658 -0.000000
v 0.377657 0.216658 -0.377657
v 0.000000 -0.204143 -0.326606
v -0.230946 -0.204143 -0.230946
v -0.326606 -0.204143 0.000000
v -0.230946 -0.204143 0.230946
v 0.000000 -0.204143 0.326606
v 0.230946 -0.204143 0.230946
v 0.326606 -0.204143 -0.000000
v 0.230946 -0.204143 -0.230946
v 0.057911 0.630152 -0.057910
v 0.113596 0.606263 -0.113595
v 0.164915 0.567470 -0.164915
v 0.209897 0.515263 -0.209897
v 0.246813 0.451649 -0.246813
v 0.274244 0.379072 -0.274243
v 0.291136 0.300322 -0.291135
v 0.296839 0.218424 -0.296839
v 0.081898 0.630152 0.000000
v 0.160648 0.606263 0.000000
v 0.233225 0.567470 0.000000
v 0.296839 0.515263 0.000000
v 0.349046 0.451649 0.000000
v 0.387839 0.379072 0.000000
v 0.411728 0.300322 0.000000
v 0.419794 0.218424 0.000000
v 0.057911 0.630152 0.057911
v 0.113596 0.606263 0.113596
v 0.164915 0.567470 0.164915
v 0.209897 0.515263 0.209897
v 0.246813 0.451649 0.246813
v 0.274244 0.379072 0.274244
v 0.291136 0.300322 0.291136
v 0.296839 0.218424 0.296840
v -0.000000 0.630152 0.081898
v -0.000000 0.606263 0.160649
v 0.000000 0.567470 0.233226
v -0.000000 0.515263 0.296840
v -0.000000 0.451649 0.349046
v -0.000000 0.379072 0.387840
v -0.000000 0.300322 0.411728
v -0.000000 0.218424 0.419795
v -0.000000 0.638218 0.000000
v -0.057911 0.630152 0.057911
v -0.113596 0.606263 0.113596
v -0.164915 0.567470 0.164915
v -0.209897 0.515263 0.209897
v -0.246813 0.451649 0.246813
v -0.274244 0.379072 0.274244
v -0.291136 0.300322 0.291136
v -0.296839 0.218424 0.296840
v -0.081898 0.630152 0.000000
v -0.160648 0.606263 0.000000
v -0.233225 0.567470 0.000000
v -0.296839 0.515263 0.000000
v -0.349046 0.451649 0.000000
v -0.387839 0.379072 0.000000
v -0.411728 0.300322 0.000000
v -0.419794 0.218424 0.000000
v -0.057911 0.630152 -0.057910
v -0.113596 0.606263 -0.113595
v -0.164915 0.567470 -0.164915
v -0.209897 0.515263 -0.209897
v -0.246813 0.451649 -0.246813
v -0.274244 0.379072 -0.274244
v -0.291136 0.300322 -0.291135
v -0.296839 0.218424 -0.296839
v -0.000000 0.630152 -0.081898
v -0.000000 0.606263 -0.160648
v -0.000000 0.567470 -0.233225
v -0.000000 0.515263 -0.296839
v -0.000000 0.451649 -0.349046
v -0.000000 0.379072 -0.387839
v -0.000000 0.300322 -0.411728
v -0.000000 0.218424 -0.419794
vt 0.439015 0.363166
vt 0.247029 0.333757
vt 0.388798 0.494036
vt 0.535295 0.357280
vt 0.602482 0.497189
vt 0.623341 0.315374
vt 0.699136 0.228086
vt 0.767634 0.388006
vt 0.758356 0.200791
vt 0.589756 0.188494
vt 0.493314 0.194521
vt 0.616502 0.078711
vt 0.437790 0.068602
vt 0.405845 0.235894
vt 0.330656 0.323600
vt 0.270420 0.143487
vt 0.511308 0.301136
vt 0.466294 0.300305
vt 0.557051 0.278233
vt 0.560113 0.250329
vt 0.581868 0.251771
vt 0.471887 0.273324
vt 0.514448 0.252419
vt 0.451356 0.298010
vt 0.681652 0.705680
vt 0.681652 0.751093
vt 0.590826 0.751093
vt 0.590826 0.705680
vt 0.681652 0.660267
vt 0.590826 0.660267
vt 0.681652 0.614854
vt 0.590826 0.614854
vt 0.681652 0.932745
vt 0.636239 0.978158
vt 0.590826 0.932745
vt 0.681652 0.887332
vt 0.590826 0.887332
vt 0.681652 0.841919
vt 0.590826 0.841919
vt 0.681652 0.796506
vt 0.590826 0.796506
vt 0.500000 0.796506
vt 0.500000 0.751093
vt 0.500000 0.705680
vt 0.500000 0.660267
vt 0.500000 0.614854
vt 0.545413 0.978158
vt 0.500000 0.932745
vt 0.500000 0.887332
vt 0.500000 0.841919
vt 0.409174 0.932745
vt 0.409174 0.887332
vt 0.409174 0.841919
vt 0.409174 0.796506
vt 0.409174 0.751093
vt 0.409174 0.705680
vt 0.409174 0.660267
vt 0.409174 0.614854
vt 0.454587 0.978158
vt 0.318348 0.751093
vt 0.318348 0.705680
vt 0.318348 0.660267
vt 0.318348 0.614854
vt 0.363761 0.978158
vt 0.318348 0.932745
vt 0.318348 0.887332
vt 0.318348 0.841919
vt 0.318348 0.796506
vt 0.227523 0.932745
vt 0.227523 0.887332
vt 0.227523 0.841919
vt 0.227523 0.796506
vt 0.227522 0.751093
vt 0.227522 0.705680
vt 0.227522 0.660267
vt 0.227522 0.614854
vt 0.272935 0.978158
vt 0.136697 0.751093
vt 0.136697 0.705680
vt 0.136697 0.660267
vt 0.136697 0.614854
vt 0.182110 0.978158
vt 0.136697 0.932745
vt 0.136697 0.887332
vt 0.136697 0.841919
vt 0.136697 0.796506
vt 0.863303 0.841919
vt 0.863303 0.887332
vt 0.772478 0.887332
vt 0.772478 0.841919
vt 0.863303 0.796506
vt 0.772477 0.796506
vt 0.863303 0.751093
vt 0.772477 0.751093
vt 0.863303 0.705680
vt 0.772477 0.705680
vt 0.863303 0.660267
vt 0.772477 0.660267
vt 0.863303 0.614854
vt 0.772477 0.614854
vt 0.863303 0.932745
vt 0.817891 0.978158
vt 0.772478 0.932745
vt 0.727065 0.978158
vt 0.214758 0.103155
vt 0.170866 0.353222
vt 0.429137 0.011139
vt 0.652021 0.018205
vt 0.829134 0.180021
vt 0.829134 0.430462
vt 0.615373 0.578850
vt 0.335233 0.579556
vn -0.1721 0.8932 -0.4154
vn 0.1721 0.8932 -0.4154
vn 0.4154 0.8932 0.1721
vn -0.1721 0.8932 0.4154
vn -0.4154 0.8932 -0.1721
vn 0.4154 0.8932 -0.1721
vn 0.1721 0.8932 0.4154
vn -0.4154 0.8932 0.1721
vn -0.1193 -0.9502 -0.2880
vn 0.1193 -0.9502 -0.2880
vn 0.2880 -0.9502 0.1193
vn -0.1193 -0.9502 0.2880
vn -0.2880 -0.9502 -0.1193
vn 0.2880 -0.9502 -0.1193
vn 0.1193 -0.9502 0.2880
vn -0.2880 -0.9502 0.1193
vn 0.3431 0.4428 -0.8284
vn 0.3685 0.2699 -0.8896
vn 0.3811 0.0906 -0.9201
vn 0.0406 0.9944 -0.0979
vn 0.1194 0.9501 -0.2882
vn 0.1916 0.8656 -0.4627
vn 0.2541 0.7476 -0.6136
vn 0.3049 0.6042 -0.7362
vn 0.7362 0.6042 -0.3049
vn 0.8284 0.4428 -0.3431
vn 0.8896 0.2699 -0.3685
vn 0.9201 0.0906 -0.3811
vn 0.0979 0.9944 -0.0406
vn 0.2882 0.9501 -0.1194
vn 0.4627 0.8656 -0.1916
vn 0.6136 0.7476 -0.2541
vn 0.2882 0.9501 0.1194
vn 0.4627 0.8656 0.1916
vn 0.6136 0.7476 0.2541
vn 0.7362 0.6042 0.3049
vn 0.8284 0.4428 0.3431
vn 0.8896 0.2699 0.3685
vn 0.9201 0.0906 0.3811
vn 0.0979 0.9944 0.0406
vn 0.3431 0.4428 0.8284
vn 0.3685 0.2699 0.8896
vn 0.3811 0.0906 0.9201
vn 0.0406 0.9944 0.0979
vn 0.1194 0.9501 0.2882
vn 0.1916 0.8656 0.4627
vn 0.2541 0.7476 0.6136
vn 0.3049 0.6042 0.7362
vn -0.1194 0.9501 0.2882
vn -0.1916 0.8656 0.4627
vn -0.2541 0.7476 0.6136
vn -0.3049 0.6042 0.7362
vn -0.3431 0.4428 0.8284
vn -0.3685 0.2699 0.8896
vn -0.3811 0.0906 0.9201
vn -0.0406 0.9944 0.0979
vn -0.8284 0.4428 0.3431
vn -0.8896 0.2699 0.3685
vn -0.9201 0.0906 0.3811
vn -0.0979 0.9944 0.0406
vn -0.2882 0.9501 0.1194
vn -0.4627 0.8656 0.1916
vn -0.6136 0.7476 0.2541
vn -0.7362 0.6042 0.3049
vn -0.4627 0.8656 -0.1916
vn -0.6136 0.7476 -0.2541
vn -0.7362 0.6042 -0.3049
vn -0.8284 0.4428 -0.3431
vn -0.8896 0.2699 -0.3685
vn -0.9201 0.0906 -0.3811
vn -0.0979 0.9944 -0.0406
vn -0.2882 0.9501 -0.1194
vn -0.3685 0.2699 -0.8896
vn -0.3811 0.0906 -0.9201
vn -0.0406 0.9944 -0.0979
vn -0.1194 0.9501 -0.2882
vn -0.1916 0.8656 -0.4627
vn -0.2541 0.7476 -0.6136
vn -0.3049 0.6042 -0.7362
vn -0.3431 0.4428 -0.8284
vn 0.0000 -1.0000 -0.0000
vn -0.0154 0.9999 -0.0064
vn -0.0154 0.9999 0.0064
vn -0.0064 0.9999 0.0154
vn 0.0064 0.9999 0.0154
vn 0.0154 0.9999 0.0064
vn 0.0154 0.9999 -0.0064
vn 0.0064 0.9999 -0.0154
vn -0.0064 0.9999 -0.0154
usemtl Material.001
s off
f 2/1/1 10/2/1 9/3/1 1/4/1
f 1/4/2 9/3/2 16/5/2 8/6/2
f 7/7/3 15/8/3 14/9/3 6/10/3
f 5/11/4 13/12/4 12/13/4 4/14/4
f 3/15/5 11/16/5 10/2/5 2/1/5
f 8/6/6 16/5/6 15/8/6 7/7/6
f 6/10/7 14/9/7 13/12/7 5/11/7
f 4/14/8 12/13/8 11/16/8 3/15/8
f 1/4/9 17/17/9 18/18/9 2/1/9
f 8/6/10 24/19/10 17/17/10 1/4/10
f 6/10/11 22/20/11 23/21/11 7/7/11
f 4/14/12 20/22/12 21/23/12 5/11/12
f 2/1/13 18/18/13 19/24/13 3/15/13
f 7/7/14 23/21/14 24/19/14 8/6/14
f 5/11/15 21/23/15 22/20/15 6/10/15
f 3/15/16 19/24/16 20/22/16 4/14/16
f 87/25/17 86/26/17 29/27/17 30/28/17
f 88/29/18 87/25/18 30/28/18 31/30/18
f 89/31/19 88/29/19 31/30/19 32/32/19
f 82/33/20 57/34/20 25/35/20
f 83/36/21 82/33/21 25/35/21 26/37/21
f 84/38/22 83/36/22 26/37/22 27/39/22
f 85/40/23 84/38/23 27/39/23 28/41/23
f 86/26/24 85/40/24 28/41/24 29/27/24
f 29/27/25 28/41/25 36/42/25 37/43/25
f 30/28/26 29/27/26 37/43/26 38/44/26
f 31/30/27 30/28/27 38/44/27 39/45/27
f 32/32/28 31/30/28 39/45/28 40/46/28
f 25/35/29 57/47/29 33/48/29
f 26/37/30 25/35/30 33/48/30 34/49/30
f 27/39/31 26/37/31 34/49/31 35/50/31
f 28/41/32 27/39/32 35/50/32 36/42/32
f 34/49/33 33/48/33 41/51/33 42/52/33
f 35/50/34 34/49/34 42/52/34 43/53/34
f 36/42/35 35/50/35 43/53/35 44/54/35
f 37/43/36 36/42/36 44/54/36 45/55/36
f 38/44/37 37/43/37 45/55/37 46/56/37
f 39/45/38 38/44/38 46/56/38 47/57/38
f 40/46/39 39/45/39 47/57/39 48/58/39
f 33/48/40 57/59/40 41/51/40
f 46/56/41 45/55/41 53/60/41 54/61/41
f 47/57/42 46/56/42 54/61/42 55/62/42
f 48/58/43 47/57/43 55/62/43 56/63/43
f 41/51/44 57/64/44 49/65/44
f 42/52/45 41/51/45 49/65/45 50/66/45
f 43/53/46 42/52/46 50/66/46 51/67/46
f 44/54/47 43/53/47 51/67/47 52/68/47
f 45/55/48 44/54/48 52/68/48 53/60/48
f 50/66/49 49/65/49 58/69/49 59/70/49
f 51/67/50 50/66/50 59/70/50 60/71/50
f 52/68/51 51/67/51 60/71/51 61/72/51
f 53/60/52 52/68/52 61/72/52 62/73/52
f 54/61/53 53/60/53 62/73/53 63/74/53
f 55/62/54 54/61/54 63/74/54 64/75/54
f 56/63/55 55/62/55 64/75/55 65/76/55
f 49/65/56 57/77/56 58/69/56
f 63/74/57 62/73/57 70/78/57 71/79/57
f 64/75/58 63/74/58 71/79/58 72/80/58
f 65/76/59 64/75/59 72/80/59 73/81/59
f 58/69/60 57/82/60 66/83/60
f 59/70/61 58/69/61 66/83/61 67/84/61
f 60/71/62 59/70/62 67/84/62 68/85/62
f 61/72/63 60/71/63 68/85/63 69/86/63
f 62/73/64 61/72/64 69/86/64 70/78/64
f 68/87/65 67/88/65 75/89/65 76/90/65
f 69/91/66 68/87/66 76/90/66 77/92/66
f 70/93/67 69/91/67 77/92/67 78/94/67
f 71/95/68 70/93/68 78/94/68 79/96/68
f 72/97/69 71/95/69 79/96/69 80/98/69
f 73/99/70 72/97/70 80/98/70 81/100/70
f 66/101/71 57/102/71 74/103/71
f 67/88/72 66/101/72 74/103/72 75/89/72
f 80/98/73 79/96/73 87/25/73 88/29/73
f 81/100/74 80/98/74 88/29/74 89/31/74
f 74/103/75 57/104/75 82/33/75
f 75/89/76 74/103/76 82/33/76 83/36/76
f 76/90/77 75/89/77 83/36/77 84/38/77
f 77/92/78 76/90/78 84/38/78 85/40/78
f 78/94/79 77/92/79 85/40/79 86/26/79
f 79/96/80 78/94/80 86/26/80 87/25/80
f 18/18/81 17/17/81 24/19/81 23/21/81 22/20/81 21/23/81 20/22/81 19/24/81
f 11/16/82 73/105/82 81/106/82 10/2/82
f 12/13/83 65/107/83 73/105/83 11/16/83
f 13/12/84 56/108/84 65/107/84 12/13/84
f 14/9/85 48/109/85 56/108/85 13/12/85
f 14/9/86 15/8/86 40/110/86 48/109/86
f 16/5/87 32/111/87 40/110/87 15/8/87
f 9/3/88 89/112/88 32/111/88 16/5/88
f 10/2/89 81/106/89 89/112/89 9/3/89
