# Blender v2.80 (sub 59) OBJ File: 'UFO.blend'
# www.blender.org
mtllib Ufo.mtl
o alienShip_Cylinder.003
v 0.000000 0.186952 0.177084
v 0.044299 0.161376 0.177084
v 0.044299 0.110223 0.177084
v -0.000000 0.084647 0.177084
v -0.044299 0.110223 0.177084
v -0.044299 0.161376 0.177084
v 0.000000 0.186952 0.340584
v 0.044299 0.161376 0.340584
v 0.044299 0.110223 0.340584
v -0.000000 0.084647 0.340584
v -0.044299 0.110223 0.340584
v -0.044299 0.161376 0.340584
v 0.000000 0.195571 0.391195
v 0.051764 0.165685 0.391195
v 0.051764 0.105913 0.391195
v -0.000000 0.076028 0.391195
v -0.051764 0.105914 0.391195
v -0.051764 0.165685 0.391195
v -0.000000 0.177207 0.391195
v 0.035860 0.156503 0.391195
v 0.035860 0.115096 0.391195
v -0.000000 0.094392 0.391195
v -0.035860 0.115096 0.391195
v -0.035860 0.156503 0.391195
v -0.000000 0.177207 0.352679
v 0.035860 0.156503 0.352679
v 0.035860 0.115096 0.352679
v -0.000000 0.094392 0.352679
v -0.035860 0.115096 0.352679
v -0.035860 0.156503 0.352679
v 0.000000 0.195571 0.349411
v 0.051764 0.165685 0.349411
v 0.051764 0.105913 0.349411
v -0.000000 0.076028 0.349411
v -0.051764 0.105914 0.349411
v -0.051764 0.165685 0.349411
v -0.353553 0.000000 -0.353553
v -0.500000 0.000000 0.000000
v -0.353553 0.000000 0.353553
v 0.000000 0.000000 0.500000
v 0.353553 0.000000 0.353553
v 0.500000 0.000000 -0.000000
v 0.353553 0.000000 -0.353553
v 0.000000 0.108329 -0.267044
v -0.188829 0.108329 -0.188829
v -0.267044 0.108329 -0.000000
v -0.188829 0.108329 0.188829
v 0.000000 0.108329 0.267044
v 0.188829 0.108329 0.188828
v 0.267044 0.108329 -0.000000
v -0.115473 -0.102071 -0.115473
v -0.163303 -0.102071 -0.000000
v -0.115473 -0.102071 0.115473
v 0.000000 -0.102071 0.163303
v 0.115473 -0.102071 0.115473
v 0.163303 -0.102071 -0.000000
v 0.028955 0.315076 -0.028955
v 0.056798 0.303132 -0.056798
v 0.082458 0.283735 -0.082457
v 0.104949 0.257632 -0.104948
v 0.123406 0.225825 -0.123406
v 0.137122 0.189536 -0.137122
v 0.145568 0.150161 -0.145568
v 0.148420 0.109212 -0.148420
v 0.040949 0.315076 0.000000
v 0.080324 0.303132 0.000000
v 0.116613 0.283735 0.000000
v 0.148420 0.257632 0.000000
v 0.174523 0.225825 0.000000
v 0.193920 0.189536 0.000000
v 0.205864 0.150161 0.000000
v 0.209897 0.109212 0.000000
v 0.028955 0.315076 0.028955
v 0.056798 0.303132 0.056798
v 0.082458 0.283735 0.082458
v 0.104949 0.257632 0.104949
v 0.123406 0.225825 0.123407
v 0.137122 0.189536 0.137122
v 0.145568 0.150161 0.145568
v 0.148420 0.109212 0.148420
v -0.000000 0.315076 0.040949
v -0.000000 0.303132 0.080324
v 0.000000 0.283735 0.116613
v -0.000000 0.257632 0.148420
v -0.000000 0.225825 0.174523
v -0.000000 0.189536 0.193920
v -0.000000 0.150161 0.205864
v -0.000000 0.109212 0.209897
v -0.000000 0.319109 0.000000
v -0.028955 0.315076 0.028955
v -0.056798 0.303132 0.056798
v -0.082458 0.283735 0.082458
v -0.104949 0.257632 0.104949
v -0.123406 0.225825 0.123407
v -0.137122 0.189536 0.137122
v -0.145568 0.150161 0.145568
v -0.148420 0.109212 0.148420
v -0.040949 0.315076 0.000000
v -0.080324 0.303132 0.000000
v -0.116613 0.283735 0.000000
v -0.148420 0.257632 0.000000
v -0.174523 0.225825 0.000000
v -0.193920 0.189536 0.000000
v -0.205864 0.150161 0.000000
v -0.209897 0.109212 0.000000
v -0.028955 0.315076 -0.028955
v -0.056798 0.303132 -0.056798
v -0.082458 0.283735 -0.082457
v -0.104949 0.257632 -0.104948
v -0.123406 0.225825 -0.123406
v -0.137122 0.189536 -0.137122
v -0.145568 0.150161 -0.145568
v -0.148420 0.109212 -0.148420
v -0.000000 0.315076 -0.040949
v -0.000000 0.303132 -0.080324
v -0.000000 0.283735 -0.116613
v -0.000000 0.257632 -0.148420
v -0.000000 0.225825 -0.174523
v -0.000000 0.189536 -0.193920
v -0.000000 0.150161 -0.205864
v -0.000000 0.109212 -0.209897
v 0.188829 0.108329 -0.188829
v 0.115473 -0.102071 -0.115473
v 0.067542 0.000548 -0.548439
v 0.310603 0.000548 -0.434677
v 0.047609 0.080415 -0.448857
v 0.177425 0.080415 -0.388098
v 0.038733 -0.074705 -0.404510
v 0.118118 -0.074705 -0.367355
v 0.082961 0.000949 -0.507918
v 0.262642 0.000949 -0.423819
v 0.068225 0.059990 -0.434302
v 0.164191 0.059990 -0.389386
v 0.061663 -0.054681 -0.401519
v 0.120348 -0.054681 -0.374052
v 0.000000 0.000000 -0.500000
v 0.000000 -0.102071 -0.163303
v -0.067542 0.000548 -0.548439
v -0.310603 0.000548 -0.434677
v -0.047609 0.080415 -0.448857
v -0.177425 0.080415 -0.388098
v -0.038733 -0.074705 -0.404510
v -0.118118 -0.074705 -0.367355
v -0.082961 0.000949 -0.507918
v -0.262642 0.000949 -0.423819
v -0.068225 0.059990 -0.434302
v -0.164191 0.059990 -0.389386
v -0.061663 -0.054681 -0.401519
v -0.120348 -0.054681 -0.374052
vt 0.144203 0.854419
vt 0.191807 0.854419
vt 0.191807 0.854419
vt 0.144203 0.854419
vt 0.239411 0.854419
vt 0.287016 0.854419
vt 0.287016 0.854419
vt 0.239411 0.854419
vt 0.334620 0.854419
vt 0.382224 0.854419
vt 0.382224 0.854419
vt 0.334620 0.854419
vt 0.096599 0.854419
vt 0.096599 0.854419
vt 0.144203 0.620052
vt 0.096599 0.620052
vt 0.191807 0.620052
vt 0.239411 0.620052
vt 0.287016 0.620052
vt 0.334620 0.620052
vt 0.382224 0.620052
vt 0.482945 0.738919
vt 0.482945 0.821033
vt 0.406684 0.821033
vt 0.406684 0.738919
vt 0.330423 0.821033
vt 0.330423 0.738919
vt 0.254162 0.821033
vt 0.254162 0.738919
vt 0.177901 0.821033
vt 0.177901 0.738919
vt 0.101640 0.821033
vt 0.101640 0.738919
vt 0.025379 0.821033
vt 0.025379 0.738919
vt 0.330423 0.821033
vt 0.254162 0.821033
vt 0.101640 0.821033
vt 0.025379 0.821033
vt 0.482945 0.821033
vt 0.406684 0.821033
vt 0.177901 0.821033
vt 0.101640 0.821033
vt 0.025379 0.821033
vt 0.254162 0.821033
vt 0.177901 0.821033
vt 0.406684 0.821033
vt 0.330423 0.821033
vt 0.482945 0.821033
vt 0.628262 0.834564
vt 0.628262 0.676780
vt 0.764907 0.597888
vt 0.901552 0.676780
vt 0.901552 0.834564
vt 0.764907 0.913456
vt 0.297235 0.219094
vt 0.331078 0.298105
vt 0.326494 0.205609
vt 0.243194 0.199533
vt 0.195545 0.202510
vt 0.256408 0.145293
vt 0.168112 0.140298
vt 0.152329 0.222952
vt 0.115181 0.266285
vt 0.085420 0.177296
vt 0.073863 0.271303
vt 0.168717 0.285833
vt 0.259787 0.262220
vt 0.249481 0.352050
vt 0.228548 0.230084
vt 0.239297 0.230796
vt 0.184958 0.241445
vt 0.205986 0.231116
vt 0.182195 0.254775
vt 0.174815 0.253641
vt 0.227036 0.243870
vt 0.856301 0.178305
vt 0.856301 0.206535
vt 0.799840 0.206535
vt 0.799840 0.178305
vt 0.856301 0.150075
vt 0.799840 0.150075
vt 0.856301 0.121845
vt 0.799840 0.121845
vt 0.856301 0.319456
vt 0.828070 0.347687
vt 0.799840 0.319456
vt 0.856301 0.291226
vt 0.799840 0.291226
vt 0.856301 0.262996
vt 0.799840 0.262996
vt 0.856301 0.234766
vt 0.799840 0.234766
vt 0.743380 0.234766
vt 0.743380 0.206535
vt 0.743380 0.178305
vt 0.743380 0.150075
vt 0.743380 0.121845
vt 0.771610 0.347687
vt 0.743380 0.319456
vt 0.743380 0.291226
vt 0.743380 0.262996
vt 0.686919 0.319456
vt 0.686919 0.291226
vt 0.686919 0.262996
vt 0.686919 0.234766
vt 0.686919 0.206535
vt 0.686919 0.178305
vt 0.686919 0.150075
vt 0.686919 0.121845
vt 0.715149 0.347687
vt 0.630459 0.206535
vt 0.630459 0.178305
vt 0.630459 0.150075
vt 0.630459 0.121845
vt 0.658689 0.347687
vt 0.630459 0.319456
vt 0.630459 0.291226
vt 0.630459 0.262996
vt 0.630459 0.234766
vt 0.573998 0.319456
vt 0.573998 0.291226
vt 0.573998 0.262996
vt 0.573998 0.234766
vt 0.573998 0.206535
vt 0.573998 0.178305
vt 0.573998 0.150075
vt 0.573998 0.121845
vt 0.602229 0.347687
vt 0.517538 0.206535
vt 0.517538 0.178305
vt 0.517538 0.150075
vt 0.517538 0.121845
vt 0.545768 0.347687
vt 0.517538 0.319456
vt 0.517538 0.291226
vt 0.517538 0.262996
vt 0.517538 0.234766
vt 0.969222 0.262996
vt 0.969222 0.291226
vt 0.912761 0.291226
vt 0.912761 0.262996
vt 0.969222 0.234766
vt 0.912761 0.234766
vt 0.969222 0.206535
vt 0.912761 0.206535
vt 0.969222 0.178305
vt 0.912761 0.178305
vt 0.969222 0.150075
vt 0.912761 0.150075
vt 0.969222 0.121845
vt 0.912761 0.121845
vt 0.969222 0.319456
vt 0.940992 0.347687
vt 0.912761 0.319456
vt 0.884531 0.347687
vt 0.204435 0.255186
vt 0.057919 0.157369
vt 0.036233 0.280920
vt 0.163837 0.111907
vt 0.273957 0.115399
vt 0.361463 0.195347
vt 0.361463 0.319082
vt 0.255850 0.392396
vt 0.143907 0.350492
vt 0.117442 0.392744
vt 0.350118 0.880821
vt 0.185705 0.932721
vt 0.210408 0.894480
vt 0.334066 0.851592
vt 0.157978 0.801952
vt 0.193531 0.794332
vt 0.234235 0.172356
vt 0.258222 0.228499
vt 0.258222 0.228499
vt 0.234235 0.172356
vt 0.325409 0.368409
vt 0.346268 0.186593
vt 0.346268 0.186593
vt 0.325409 0.368409
vt 0.111725 0.365256
vt 0.111725 0.365256
vt 0.279978 0.149453
vt 0.279978 0.149453
vt 0.796758 0.800207
vt 0.650261 0.936963
vt 0.863946 0.940116
vt 0.884805 0.758301
vt 0.818515 0.721160
vt 0.772771 0.744063
vt 0.249220 0.662596
vt 0.383754 0.558987
vt 0.364237 0.606789
vt 0.262051 0.684996
vt 0.383754 0.791608
vt 0.364108 0.781929
vt 0.350118 0.880821
vt 0.334066 0.851592
vt 0.210408 0.894480
vt 0.185705 0.932721
vt 0.193531 0.794332
vt 0.157978 0.801952
vt 0.234235 0.172356
vt 0.258222 0.228499
vt 0.325409 0.368409
vt 0.325409 0.368409
vt 0.346268 0.186593
vt 0.346268 0.186593
vt 0.111725 0.365256
vt 0.279978 0.149453
vt 0.279978 0.149453
vt 0.796758 0.800207
vt 0.884805 0.758301
vt 0.863946 0.940116
vt 0.650261 0.936963
vt 0.772771 0.744063
vt 0.818515 0.721160
vt 0.249220 0.662596
vt 0.262051 0.684996
vt 0.364237 0.606789
vt 0.383754 0.558987
vt 0.364108 0.781929
vt 0.383754 0.791608
vn -0.7635 0.0000 -0.6458
vn 0.3818 -0.6612 -0.6458
vn 0.3818 0.6612 -0.6458
vn -0.3818 0.6612 -0.6458
vn -0.3818 -0.6612 -0.6458
vn 0.7635 0.0000 -0.6458
vn -0.5000 0.8660 0.0000
vn -1.0000 0.0000 0.0000
vn -0.5000 -0.8660 -0.0000
vn 0.5000 -0.8660 0.0000
vn 1.0000 0.0000 0.0000
vn 0.5000 0.8660 0.0000
vn -0.0000 0.0000 1.0000
vn 0.4154 0.8932 0.1721
vn -0.1721 0.8932 0.4154
vn -0.4154 0.8932 -0.1721
vn 0.4154 0.8932 -0.1721
vn 0.1721 0.8932 0.4154
vn -0.4154 0.8932 0.1721
vn 0.2880 -0.9502 0.1193
vn -0.1193 -0.9502 0.2880
vn -0.2880 -0.9502 -0.1193
vn 0.2880 -0.9502 -0.1193
vn 0.1193 -0.9502 0.2880
vn -0.2880 -0.9502 0.1193
vn 0.3431 0.4428 -0.8284
vn 0.3685 0.2699 -0.8896
vn 0.3811 0.0906 -0.9201
vn 0.0406 0.9944 -0.0979
vn 0.1194 0.9501 -0.2882
vn 0.1916 0.8656 -0.4627
vn 0.2541 0.7476 -0.6136
vn 0.3049 0.6042 -0.7362
vn 0.7362 0.6042 -0.3049
vn 0.8284 0.4428 -0.3431
vn 0.8896 0.2699 -0.3685
vn 0.9201 0.0906 -0.3811
vn 0.0979 0.9944 -0.0406
vn 0.2882 0.9501 -0.1194
vn 0.4627 0.8656 -0.1916
vn 0.6136 0.7476 -0.2541
vn 0.2882 0.9501 0.1194
vn 0.4627 0.8656 0.1916
vn 0.6136 0.7476 0.2541
vn 0.7362 0.6042 0.3049
vn 0.8284 0.4428 0.3431
vn 0.8896 0.2699 0.3685
vn 0.9201 0.0906 0.3811
vn 0.0979 0.9944 0.0406
vn 0.3431 0.4428 0.8284
vn 0.3685 0.2699 0.8896
vn 0.3811 0.0906 0.9201
vn 0.0406 0.9944 0.0979
vn 0.1194 0.9501 0.2882
vn 0.1916 0.8656 0.4627
vn 0.2541 0.7476 0.6136
vn 0.3049 0.6042 0.7362
vn -0.1194 0.9501 0.2882
vn -0.1916 0.8656 0.4627
vn -0.2541 0.7476 0.6136
vn -0.3049 0.6042 0.7362
vn -0.3431 0.4428 0.8284
vn -0.3685 0.2699 0.8896
vn -0.3811 0.0906 0.9201
vn -0.0406 0.9944 0.0979
vn -0.8284 0.4428 0.3431
vn -0.8896 0.2699 0.3685
vn -0.9201 0.0906 0.3811
vn -0.0979 0.9944 0.0406
vn -0.2882 0.9501 0.1194
vn -0.4627 0.8656 0.1916
vn -0.6136 0.7476 0.2541
vn -0.7362 0.6042 0.3049
vn -0.4627 0.8656 -0.1916
vn -0.6136 0.7476 -0.2541
vn -0.7362 0.6042 -0.3049
vn -0.8284 0.4428 -0.3431
vn -0.8896 0.2699 -0.3685
vn -0.9201 0.0906 -0.3811
vn -0.0979 0.9944 -0.0406
vn -0.2882 0.9501 -0.1194
vn -0.3685 0.2699 -0.8896
vn -0.3811 0.0906 -0.9201
vn -0.0406 0.9944 -0.0979
vn -0.1194 0.9501 -0.2882
vn -0.1916 0.8656 -0.4627
vn -0.2541 0.7476 -0.6136
vn -0.3049 0.6042 -0.7362
vn -0.3431 0.4428 -0.8284
vn -0.0000 -1.0000 -0.0000
vn -0.0154 0.9999 -0.0064
vn -0.0154 0.9999 0.0064
vn -0.0064 0.9999 0.0154
vn 0.0064 0.9999 0.0154
vn 0.0154 0.9999 0.0064
vn 0.0154 0.9999 -0.0064
vn 0.0064 0.9999 -0.0154
vn -0.0064 0.9999 -0.0154
vn 0.6559 -0.7149 -0.2425
vn 0.7698 0.5643 -0.2985
vn -0.6332 -0.7131 -0.3010
vn 0.4368 0.8832 -0.1709
vn 0.0606 0.9884 -0.1390
vn 0.3066 -0.9447 -0.1163
vn 0.0464 -0.9932 -0.1064
vn -0.6523 0.6422 -0.4026
vn 0.2667 0.7772 -0.5699
vn 0.1979 -0.8844 -0.4228
vn -0.2148 0.1995 -0.9561
vn 0.4142 -0.2126 -0.8850
vn -0.2137 -0.2884 -0.9334
vn 0.4001 -0.3305 -0.8548
vn -0.6559 -0.7149 -0.2425
vn -0.7698 0.5643 -0.2985
vn 0.6332 -0.7131 -0.3010
vn -0.4368 0.8832 -0.1709
vn -0.0606 0.9884 -0.1390
vn -0.3066 -0.9447 -0.1163
vn -0.0464 -0.9932 -0.1064
vn 0.6523 0.6422 -0.4026
vn -0.2667 0.7772 -0.5699
vn -0.1979 -0.8844 -0.4228
vn 0.2148 0.1995 -0.9561
vn -0.4142 -0.2126 -0.8850
vn 0.2137 -0.2884 -0.9334
vn -0.4001 -0.3305 -0.8548
usemtl ship
s off
f 12/1/1 11/2/1 35/3/1 36/4/1
f 10/5/2 9/6/2 33/7/2 34/8/2
f 8/9/3 7/10/3 31/11/3 32/12/3
f 7/13/4 12/1/4 36/4/4 31/14/4
f 11/2/5 10/5/5 34/8/5 35/3/5
f 9/6/6 8/9/6 32/12/6 33/7/6
f 6/15/7 12/1/7 7/13/7 1/16/7
f 5/17/8 11/2/8 12/1/8 6/15/8
f 4/18/9 10/5/9 11/2/9 5/17/9
f 3/19/10 9/6/10 10/5/10 4/18/10
f 2/20/11 8/9/11 9/6/11 3/19/11
f 1/21/12 7/10/12 8/9/12 2/20/12
f 31/22/12 13/23/12 14/24/12 32/25/12
f 32/25/11 14/24/11 15/26/11 33/27/11
f 33/27/10 15/26/10 16/28/10 34/29/10
f 34/29/9 16/28/9 17/30/9 35/31/9
f 35/31/8 17/30/8 18/32/8 36/33/8
f 36/33/7 18/32/7 13/34/7 31/35/7
f 16/28/13 15/26/13 21/36/13 22/37/13
f 13/34/13 18/32/13 24/38/13 19/39/13
f 14/24/13 13/23/13 19/40/13 20/41/13
f 17/30/13 16/28/13 22/37/13 23/42/13
f 15/26/13 14/24/13 20/41/13 21/36/13
f 18/32/13 17/30/13 23/42/13 24/38/13
f 19/39/10 24/38/10 30/43/10 25/44/10
f 23/42/12 22/37/12 28/45/12 29/46/12
f 21/36/8 20/41/8 26/47/8 27/48/8
f 24/38/11 23/42/11 29/46/11 30/43/11
f 22/37/7 21/36/7 27/48/7 28/45/7
f 20/41/9 19/40/9 25/49/9 26/47/9
f 25/50/13 30/51/13 29/52/13 28/53/13 27/54/13 26/55/13
f 42/56/14 50/57/14 49/58/14 41/59/14
f 40/60/15 48/61/15 47/62/15 39/63/15
f 38/64/16 46/65/16 45/66/16 37/67/16
f 43/68/17 122/69/17 50/57/17 42/56/17
f 41/59/18 49/58/18 48/61/18 40/60/18
f 39/63/19 47/62/19 46/65/19 38/64/19
f 41/59/20 55/70/20 56/71/20 42/56/20
f 39/63/21 53/72/21 54/73/21 40/60/21
f 37/67/22 51/74/22 52/75/22 38/64/22
f 42/56/23 56/71/23 123/76/23 43/68/23
f 40/60/24 54/73/24 55/70/24 41/59/24
f 38/64/25 52/75/25 53/72/25 39/63/25
f 119/77/26 118/78/26 61/79/26 62/80/26
f 120/81/27 119/77/27 62/80/27 63/82/27
f 121/83/28 120/81/28 63/82/28 64/84/28
f 114/85/29 89/86/29 57/87/29
f 115/88/30 114/85/30 57/87/30 58/89/30
f 116/90/31 115/88/31 58/89/31 59/91/31
f 117/92/32 116/90/32 59/91/32 60/93/32
f 118/78/33 117/92/33 60/93/33 61/79/33
f 61/79/34 60/93/34 68/94/34 69/95/34
f 62/80/35 61/79/35 69/95/35 70/96/35
f 63/82/36 62/80/36 70/96/36 71/97/36
f 64/84/37 63/82/37 71/97/37 72/98/37
f 57/87/38 89/99/38 65/100/38
f 58/89/39 57/87/39 65/100/39 66/101/39
f 59/91/40 58/89/40 66/101/40 67/102/40
f 60/93/41 59/91/41 67/102/41 68/94/41
f 66/101/42 65/100/42 73/103/42 74/104/42
f 67/102/43 66/101/43 74/104/43 75/105/43
f 68/94/44 67/102/44 75/105/44 76/106/44
f 69/95/45 68/94/45 76/106/45 77/107/45
f 70/96/46 69/95/46 77/107/46 78/108/46
f 71/97/47 70/96/47 78/108/47 79/109/47
f 72/98/48 71/97/48 79/109/48 80/110/48
f 65/100/49 89/111/49 73/103/49
f 78/108/50 77/107/50 85/112/50 86/113/50
f 79/109/51 78/108/51 86/113/51 87/114/51
f 80/110/52 79/109/52 87/114/52 88/115/52
f 73/103/53 89/116/53 81/117/53
f 74/104/54 73/103/54 81/117/54 82/118/54
f 75/105/55 74/104/55 82/118/55 83/119/55
f 76/106/56 75/105/56 83/119/56 84/120/56
f 77/107/57 76/106/57 84/120/57 85/112/57
f 82/118/58 81/117/58 90/121/58 91/122/58
f 83/119/59 82/118/59 91/122/59 92/123/59
f 84/120/60 83/119/60 92/123/60 93/124/60
f 85/112/61 84/120/61 93/124/61 94/125/61
f 86/113/62 85/112/62 94/125/62 95/126/62
f 87/114/63 86/113/63 95/126/63 96/127/63
f 88/115/64 87/114/64 96/127/64 97/128/64
f 81/117/65 89/129/65 90/121/65
f 95/126/66 94/125/66 102/130/66 103/131/66
f 96/127/67 95/126/67 103/131/67 104/132/67
f 97/128/68 96/127/68 104/132/68 105/133/68
f 90/121/69 89/134/69 98/135/69
f 91/122/70 90/121/70 98/135/70 99/136/70
f 92/123/71 91/122/71 99/136/71 100/137/71
f 93/124/72 92/123/72 100/137/72 101/138/72
f 94/125/73 93/124/73 101/138/73 102/130/73
f 100/139/74 99/140/74 107/141/74 108/142/74
f 101/143/75 100/139/75 108/142/75 109/144/75
f 102/145/76 101/143/76 109/144/76 110/146/76
f 103/147/77 102/145/77 110/146/77 111/148/77
f 104/149/78 103/147/78 111/148/78 112/150/78
f 105/151/79 104/149/79 112/150/79 113/152/79
f 98/153/80 89/154/80 106/155/80
f 99/140/81 98/153/81 106/155/81 107/141/81
f 112/150/82 111/148/82 119/77/82 120/81/82
f 113/152/83 112/150/83 120/81/83 121/83/83
f 106/155/84 89/156/84 114/85/84
f 107/141/85 106/155/85 114/85/85 115/88/85
f 108/142/86 107/141/86 115/88/86 116/90/86
f 109/144/87 108/142/87 116/90/87 117/92/87
f 110/146/88 109/144/88 117/92/88 118/78/88
f 111/148/89 110/146/89 118/78/89 119/77/89
f 51/74/90 137/157/90 123/76/90 56/71/90 55/70/90 54/73/90 53/72/90 52/75/90
f 46/65/91 105/158/91 113/159/91 45/66/91
f 47/62/92 97/160/92 105/158/92 46/65/92
f 48/61/93 88/161/93 97/160/93 47/62/93
f 49/58/94 80/162/94 88/161/94 48/61/94
f 49/58/95 50/57/95 72/163/95 80/162/95
f 122/69/96 64/164/96 72/163/96 50/57/96
f 44/165/97 121/166/97 64/164/97 122/69/97
f 45/66/98 113/159/98 121/166/98 44/165/98
f 128/167/99 124/168/99 130/169/99 134/170/99
f 124/168/100 126/171/100 132/172/100 130/169/100
f 137/173/101 136/174/101 124/175/101 128/176/101
f 122/177/102 43/178/102 125/179/102 127/180/102
f 44/181/103 122/177/103 127/180/103 126/182/103
f 43/178/104 123/183/104 129/184/104 125/179/104
f 123/183/105 137/173/105 128/176/105 129/184/105
f 136/174/106 44/181/106 126/182/106 124/175/106
f 130/185/107 132/186/107 133/187/107 131/188/107
f 131/188/108 135/189/108 134/190/108 130/185/108
f 127/191/109 125/192/109 131/193/109 133/194/109
f 126/171/110 127/191/110 133/194/110 132/172/110
f 125/192/111 129/195/111 135/196/111 131/193/111
f 129/195/112 128/167/112 134/170/112 135/196/112
f 142/197/113 148/198/113 144/199/113 138/200/113
f 138/200/114 144/199/114 146/201/114 140/202/114
f 137/173/115 142/203/115 138/204/115 136/174/115
f 45/205/116 141/206/116 139/207/116 37/208/116
f 44/181/117 140/209/117 141/206/117 45/205/117
f 37/208/118 139/207/118 143/210/118 51/211/118
f 51/211/119 143/210/119 142/203/119 137/173/119
f 136/174/120 138/204/120 140/209/120 44/181/120
f 144/212/121 145/213/121 147/214/121 146/215/121
f 145/213/122 144/212/122 148/216/122 149/217/122
f 141/218/123 147/219/123 145/220/123 139/221/123
f 140/202/124 146/201/124 147/219/124 141/218/124
f 139/221/125 145/220/125 149/222/125 143/223/125
f 143/223/126 149/222/126 148/198/126 142/197/126
